<?xml version="1.0" encoding="utf-8"?>
<!-- TV illustration centered on orange background, scaled to 2x with equal padding -->
<svg xmlns="http://www.w3.org/2000/svg" viewBox="0 0 100 100">
  <rect width="100" height="100" fill="#ea580c"/>
  <g transform="translate(18, 18) scale(2)">
    <path d="M0.5,4.5v23h31v-23H0.5z" style="fill: #AF9480;"/>
    <path d="M4,25.5h2v-19H4C3.173,6.5,2.5,7.173,2.5,8v16C2.5,24.827,3.173,25.5,4,25.5z" style="fill: #FFFAEE;"/>
    <rect x="6" y="6.5" width="3" height="19" style="fill: #EAD13F;"/>
    <rect x="9" y="6.5" width="3" height="19" style="fill: #248EBC;"/>
    <rect x="12" y="6.5" width="3" height="19" style="fill: #6F9B45;"/>
    <rect x="15" y="6.5" width="3" height="19" style="fill: #BF63C1;"/>
    <rect x="18.001" y="6.5" width="3" height="19" style="fill: #CC4121;"/>
    <path d="M23,6.5h-2v19h2c0.827,0,1.5-0.673,1.5-1.5V8C24.5,7.173,23.827,6.5,23,6.5z" style="fill: #0E608E;"/>
    <path d="M0,4v24h32V4H0z M31,27H1V5h30V27z M4,26h19c1.105,0,2-0.895,2-2V8c0-1.105-0.895-2-2-2H4 C2.895,6,2,6.895,2,8v16C2,25.105,2.895,26,4,26z M3,8c0-0.551,0.449-1,1-1h19c0.551,0,1,0.449,1,1v16c0,0.551-0.449,1-1,1H4 c-0.551,0-1-0.449-1-1V8z" style="fill: #231F20;"/>
    <path d="M30,9c0,1.105-0.895,2-2,2s-2-0.895-2-2s0.895-2,2-2S30,7.895,30,9z M28,12 c-1.105,0-2,0.895-2,2s0.895,2,2,2s2-0.895,2-2S29.105,12,28,12z" style="fill: #716558;"/>
  </g>
</svg>
