<?xml version="1.0" encoding="utf-8" standalone="yes"?>
<!DOCTYPE svg PUBLIC "-//W3C//DTD SVG 1.1//EN" "http://www.w3.org/Graphics/SVG/1.1/DTD/svg11.dtd">
<svg xmlns="http://www.w3.org/2000/svg" xmlns:xlink="http://www.w3.org/1999/xlink" xmlns:dc="http://purl.org/dc/elements/1.1/" xmlns:cc="http://web.resource.org/cc/" xmlns:rdf="http://www.w3.org/1999/02/22-rdf-syntax-ns#" xmlns:sodipodi="http://sodipodi.sourceforge.net/DTD/sodipodi-0.dtd" xmlns:inkscape="http://www.inkscape.org/namespaces/inkscape" version="1.1" baseProfile="full" width="160px" height="32px" viewBox="0 0 160 32" preserveAspectRatio="xMidYMid meet" id="svg_document" style="zoom: 1;"><!-- Created with macSVG - https://macsvg.org/ - https://github.com/dsward2/macsvg/ --><title id="svg_document_title">Untitled.svg</title><defs id="svg_document_defs"></defs><g id="main_group"><text id="sample_text_element" style="outline-style:none;" xml:space="preserve" x="91px" text-rendering="geometricPrecision" font-family="Courier New" y="22px" fill="black" font-size="20px" transform="" text-anchor="middle">Seasoning</text></g><svg version="1.1" id="DESIGNS" x="0px" y="0px" width="32px" height="32px" viewBox="0 0 32 32" style="enable-background:new 0 0 32 32;zoom: 1;" xml:space="preserve"><title property="dc:title" id="title1">to watch</title><desc property="dc:description" id="desc1">An icon for "watch" from the Avocado series on to [icon]. Downloaded from http://www.toicon.com/icons/avocado_watch by 142.255.78.236 on 2021-03-21. Licensed CC-BY, see http://toicon.com/license/ for details.</desc><g id="g1"><path class="avocado_vier" d="M0.5,4.5v23h31v-23H0.5z" style="fill: #AF9480;" id="path1"></path><path class="avocado_zes" d="M4,25.5h2v-19H4C3.173,6.5,2.5,7.173,2.5,8v16C2.5,24.827,3.173,25.5,4,25.5z" style="fill: #FFFAEE;" id="path1"></path><g id="g1"><rect x="6" y="6.5" class="avocado_twintig" width="3" height="19" style="fill: #EAD13F;" id="rect1"></rect></g><rect x="9" y="6.5" class="avocado_twaalf" width="3" height="19" style="fill: #248EBC;" id="rect1"></rect><rect x="12" y="6.5" class="avocado_negen" width="3" height="19" style="fill: #6F9B45;" id="rect1"></rect><rect x="15" y="6.5" class="avocado_veertien" width="3" height="19" style="fill: #BF63C1;" id="rect1"></rect><rect x="18.001" y="6.5" class="avocado_zeventien" width="3" height="19" style="fill: #CC4121;" id="rect1"></rect><path class="avocado_elf" d="M23,6.5h-2v19h2c0.827,0,1.5-0.673,1.5-1.5V8C24.5,7.173,23.827,6.5,23,6.5z" style="fill: #0E608E;" id="path1"></path><path class="avocado_een" d="M0,4v24h32V4H0z M31,27H1V5h30V27z M4,26h19c1.105,0,2-0.895,2-2V8c0-1.105-0.895-2-2-2H4 C2.895,6,2,6.895,2,8v16C2,25.105,2.895,26,4,26z M3,8c0-0.551,0.449-1,1-1h19c0.551,0,1,0.449,1,1v16c0,0.551-0.449,1-1,1H4 c-0.551,0-1-0.449-1-1V8z" style="fill: #231F20;" id="path1"></path><path class="avocado_drie" d="M30,9c0,1.105-0.895,2-2,2s-2-0.895-2-2s0.895-2,2-2S30,7.895,30,9z M28,12 c-1.105,0-2,0.895-2,2s0.895,2,2,2s2-0.895,2-2S29.105,12,28,12z" style="fill: #716558;" id="path1"></path></g><metadata id="metadata1"><work rdf:about="" id="work1"><format id="format1">image/svg+xml</format><type rdf:resource="http://purl.org/dc/dcmitype/StillImage" id="type1"></type><license rdf:resource="http://creativecommons.org/licenses/by/4.0/" id="license1"></license><attributionname id="attributionname1">Shannon E Thomas</attributionname><attributionurl id="attributionurl1">http://www.toicon.com/icons/avocado_watch</attributionurl></work></metadata></svg><title property="dc:title" id="title2">to watch</title><desc property="dc:description" id="desc2">An icon for "watch" from the Avocado series on to [icon]. Downloaded from http://www.toicon.com/icons/avocado_watch by 142.255.78.236 on 2021-03-21. Licensed CC-BY, see http://toicon.com/license/ for details.</desc><g id="g2"><path class="avocado_vier" d="M0.5,4.5v23h31v-23H0.5z" style="fill: #AF9480;" id="path2"></path><path class="avocado_zes" d="M4,25.5h2v-19H4C3.173,6.5,2.5,7.173,2.5,8v16C2.5,24.827,3.173,25.5,4,25.5z" style="fill: #FFFAEE;" id="path2"></path><g id="g2"><rect x="6" y="6.5" class="avocado_twintig" width="3" height="19" style="fill: #EAD13F;" id="rect2"></rect></g><rect x="9" y="6.5" class="avocado_twaalf" width="3" height="19" style="fill: #248EBC;" id="rect2"></rect><rect x="12" y="6.5" class="avocado_negen" width="3" height="19" style="fill: #6F9B45;" id="rect2"></rect><rect x="15" y="6.5" class="avocado_veertien" width="3" height="19" style="fill: #BF63C1;" id="rect2"></rect><rect x="18.001" y="6.5" class="avocado_zeventien" width="3" height="19" style="fill: #CC4121;" id="rect2"></rect><path class="avocado_elf" d="M23,6.5h-2v19h2c0.827,0,1.5-0.673,1.5-1.5V8C24.5,7.173,23.827,6.5,23,6.5z" style="fill: #0E608E;" id="path2"></path><path class="avocado_een" d="M0,4v24h32V4H0z M31,27H1V5h30V27z M4,26h19c1.105,0,2-0.895,2-2V8c0-1.105-0.895-2-2-2H4 C2.895,6,2,6.895,2,8v16C2,25.105,2.895,26,4,26z M3,8c0-0.551,0.449-1,1-1h19c0.551,0,1,0.449,1,1v16c0,0.551-0.449,1-1,1H4 c-0.551,0-1-0.449-1-1V8z" style="fill: #231F20;" id="path2"></path><path class="avocado_drie" d="M30,9c0,1.105-0.895,2-2,2s-2-0.895-2-2s0.895-2,2-2S30,7.895,30,9z M28,12 c-1.105,0-2,0.895-2,2s0.895,2,2,2s2-0.895,2-2S29.105,12,28,12z" style="fill: #716558;" id="path2"></path></g><path class="avocado_vier" d="M0.5,4.5v23h31v-23H0.5z" style="fill: #AF9480;" id="path3"></path><path class="avocado_zes" d="M4,25.5h2v-19H4C3.173,6.5,2.5,7.173,2.5,8v16C2.5,24.827,3.173,25.5,4,25.5z" style="fill: #FFFAEE;" id="path4"></path><g id="g3"><rect x="6" y="6.5" class="avocado_twintig" width="3" height="19" style="fill: #EAD13F;" id="rect3"></rect></g><rect x="6" y="6.5" class="avocado_twintig" width="3" height="19" style="fill: #EAD13F;" id="rect4"></rect><rect x="9" y="6.5" class="avocado_twaalf" width="3" height="19" style="fill: #248EBC;" id="rect5"></rect><rect x="12" y="6.5" class="avocado_negen" width="3" height="19" style="fill: #6F9B45;" id="rect6"></rect><rect x="15" y="6.5" class="avocado_veertien" width="3" height="19" style="fill: #BF63C1;" id="rect7"></rect><rect x="18.001" y="6.5" class="avocado_zeventien" width="3" height="19" style="fill: #CC4121;" id="rect8"></rect><path class="avocado_elf" d="M23,6.5h-2v19h2c0.827,0,1.5-0.673,1.5-1.5V8C24.5,7.173,23.827,6.5,23,6.5z" style="fill: #0E608E;" id="path5"></path><path class="avocado_een" d="M0,4v24h32V4H0z M31,27H1V5h30V27z M4,26h19c1.105,0,2-0.895,2-2V8c0-1.105-0.895-2-2-2H4 C2.895,6,2,6.895,2,8v16C2,25.105,2.895,26,4,26z M3,8c0-0.551,0.449-1,1-1h19c0.551,0,1,0.449,1,1v16c0,0.551-0.449,1-1,1H4 c-0.551,0-1-0.449-1-1V8z" style="fill: #231F20;" id="path6"></path><path class="avocado_drie" d="M30,9c0,1.105-0.895,2-2,2s-2-0.895-2-2s0.895-2,2-2S30,7.895,30,9z M28,12 c-1.105,0-2,0.895-2,2s0.895,2,2,2s2-0.895,2-2S29.105,12,28,12z" style="fill: #716558;" id="path7"></path><format id="format2">image/svg+xml</format><attributionname id="attributionname2">Shannon E Thomas</attributionname><attributionurl id="attributionurl2">http://www.toicon.com/icons/avocado_watch</attributionurl></svg>