<?xml version="1.0" encoding="UTF-8" standalone="yes"?><!-- Generator: Adobe Illustrator 19.1.0, SVG Export Plug-In . SVG Version: 6.00 Build 0)  --><svg xmlns="http://www.w3.org/2000/svg" xmlns:xlink="http://www.w3.org/1999/xlink" xmlns:dc="http://purl.org/dc/elements/1.1/" xmlns:cc="http://creativecommons.org/ns#" xmlns:rdf="http://www.w3.org/1999/02/22-rdf-syntax-ns#" version="1.1" id="DESIGNS" x="0px" y="0px" width="256px" height="256px" viewBox="0 0 32 32" style="enable-background:new 0 0 32 32;zoom: 2;" xml:space="preserve"><title property="dc:title">to watch</title><desc property="dc:description">An icon for "watch" from the Avocado series on to [icon]. Downloaded from http://www.toicon.com/icons/avocado_watch by 142.255.78.236 on 2021-04-04. Licensed CC-BY, see http://toicon.com/license/ for details.</desc><g><path class="avocado_vier" d="M0.5,4.5v23h31v-23H0.5z" style="fill: #AF9480;"></path><path class="avocado_zes" d="M4,25.5h2v-19H4C3.173,6.5,2.5,7.173,2.5,8v16C2.5,24.827,3.173,25.5,4,25.5z" style="fill: #FFFAEE;"></path><g><rect x="6" y="6.5" class="avocado_twintig" width="3" height="19" style="fill: #EAD13F;"></rect></g><rect x="9" y="6.5" class="avocado_twaalf" width="3" height="19" style="fill: #248EBC;"></rect><rect x="12" y="6.5" class="avocado_negen" width="3" height="19" style="fill: #6F9B45;"></rect><rect x="15" y="6.5" class="avocado_veertien" width="3" height="19" style="fill: #BF63C1;"></rect><rect x="18.001" y="6.5" class="avocado_zeventien" width="3" height="19" style="fill: #CC4121;"></rect><path d="M23,6.5 h-2 v19 h2 c0.827,0 1.5,-0.673 1.5,-1.5 V8 C24.5,7.173 23.827,6.5 23,6.5 " style="fill: #0E608E;" class="avocado_elf"></path><path class="avocado_een" d="M0,4v24h32V4H0z M31,27H1V5h30V27z M4,26h19c1.105,0,2-0.895,2-2V8c0-1.105-0.895-2-2-2H4 C2.895,6,2,6.895,2,8v16C2,25.105,2.895,26,4,26z M3,8c0-0.551,0.449-1,1-1h19c0.551,0,1,0.449,1,1v16c0,0.551-0.449,1-1,1H4 c-0.551,0-1-0.449-1-1V8z" style="fill: #231F20;"></path><path class="avocado_drie" d="M30,9c0,1.105-0.895,2-2,2s-2-0.895-2-2s0.895-2,2-2S30,7.895,30,9z M28,12 c-1.105,0-2,0.895-2,2s0.895,2,2,2s2-0.895,2-2S29.105,12,28,12z" style="fill: #716558;"></path></g><metadata><work rdf:about=""><format>image/svg+xml</format><type rdf:resource="http://purl.org/dc/dcmitype/StillImage"></type><license rdf:resource="http://creativecommons.org/licenses/by/4.0/"></license><attributionname>Shannon E Thomas</attributionname><attributionurl>http://www.toicon.com/icons/avocado_watch</attributionurl></work></metadata></svg>