<?xml version="1.0" encoding="UTF-8"?>
<!-- Generator: Adobe Illustrator 19.1.0, SVG Export Plug-In . SVG Version: 6.00 Build 0)  -->
<svg xmlns="http://www.w3.org/2000/svg" xmlns:xlink="http://www.w3.org/1999/xlink" xmlns:dc="http://purl.org/dc/elements/1.1/" xmlns:cc="http://creativecommons.org/ns#" xmlns:rdf="http://www.w3.org/1999/02/22-rdf-syntax-ns#" version="1.1" id="DESIGNS" x="0px" y="0px" width="32px" height="32px" viewBox="0 0 32 32" style="enable-background:new 0 0 32 32;" xml:space="preserve">
<title property="dc:title">to say</title><desc property="dc:description">An icon for "say" from the Avocado series on to [icon]. Downloaded from http://www.toicon.com/icons/avocado_say by 142.255.78.236 on 2021-04-05. Licensed CC-BY, see http://toicon.com/license/ for details.</desc>
<g>
	<path class="avocado_zes" d="M16,29.5c-2.665,0-5.246-0.779-7.463-2.254l-0.229-0.152l-5.197,2.31L2.596,28.89l2.31-5.197   l-0.152-0.229C3.279,21.245,2.5,18.665,2.5,16C2.5,8.556,8.556,2.5,16,2.5S29.5,8.556,29.5,16S23.444,29.5,16,29.5z" style="fill: #FFFAEE;"/>
	<path class="avocado_een" d="M16,2C8.268,2,2,8.268,2,16c0,2.863,0.863,5.522,2.338,7.74L2,29l1,1l5.26-2.338   C10.478,29.137,13.137,30,16,30c7.732,0,14-6.268,14-14S23.732,2,16,2z M16,28.923c-2.551,0-5.021-0.746-7.144-2.158l-0.493-0.328   l-5.042,2.241l2.241-5.042l-0.328-0.493C3.823,21.021,3.077,18.551,3.077,16C3.077,8.874,8.874,3.077,16,3.077   S28.923,8.874,28.923,16S23.126,28.923,16,28.923z M12,12h8v1h-8V12z M12,14h8v1h-8V14z M12,16h8v1h-8V16z M12,18h8v1h-8V18z" style="fill: #231F20;"/>
</g>
<metadata><work rdf:about=""><format>image/svg+xml</format><type rdf:resource="http://purl.org/dc/dcmitype/StillImage"/><license rdf:resource="http://creativecommons.org/licenses/by/4.0/"/><attributionname>Shannon E Thomas</attributionname><attributionurl>http://www.toicon.com/icons/avocado_say</attributionurl></work></metadata></svg>
